Coordinates
version=1
nRows=21
nColumns=24
inDegrees=yes

Units are S.I. units (second, meters, Newtons, ...)
Angles are in degrees.

endheader
time	pelvis_tilt	pelvis_list	pelvis_rotation	pelvis_tx	pelvis_ty	pelvis_tz	hip_flexion_r	hip_adduction_r	hip_rotation_r	knee_angle_r	ankle_angle_r	subtalar_angle_r	mtp_angle_r	hip_flexion_l	hip_adduction_l	hip_rotation_l	knee_angle_l	ankle_angle_l	subtalar_angle_l	mtp_angle_l	lumbar_extension	lumbar_bending	lumbar_rotation
39.99800000	4.84455933	-1.84559258	-0.77772078	0.60102028	1.04559875	-0.02160049	1.75650636	-2.90617367	-6.95037445	-43.90261200	-1.66218970	-0.00000082	0.00000000	24.02267482	1.38076320	0.20135362	-20.01164195	-6.08752525	0.00000249	0.00000000	-19.54310531	-0.47001089	-4.72635202
40.00000000	4.84455933	-1.84559258	-0.77772078	0.60102028	1.04559875	-0.02160049	2.02819299	-2.90617367	-6.95037445	-44.51397618	-2.23163206	-0.00000082	0.00000000	23.87709312	1.38076320	0.20135362	-20.06701410	-5.97703642	0.00000249	0.00000000	-19.54310531	-0.47001089	-4.72635202
40.00200000	4.84455933	-1.84559258	-0.77772078	0.60102028	1.04559875	-0.02160049	2.30652217	-2.90617367	-6.95037445	-45.12690596	-2.79871816	-0.00000082	0.00000000	23.72945115	1.38076320	0.20135362	-20.11458320	-5.86576408	0.00000249	0.00000000	-19.54310531	-0.47001089	-4.72635202
40.00400000	4.84455933	-1.84559258	-0.77772078	0.60102028	1.04559875	-0.02160049	2.59121575	-2.90617367	-6.95037445	-45.74089927	-3.36300445	-0.00000082	0.00000000	23.58003432	1.38076320	0.20135362	-20.15445246	-5.75373005	0.00000249	0.00000000	-19.54310531	-0.47001089	-4.72635202
40.00600000	4.84455933	-1.84559258	-0.77772078	0.60102028	1.04559875	-0.02160049	2.88227118	-2.90617367	-6.95037445	-46.35525145	-3.92405930	-0.00000082	0.00000000	23.42905711	1.38076320	0.20135362	-20.18681973	-5.64094365	0.00000249	0.00000000	-19.54310531	-0.47001089	-4.72635202
40.00800000	4.84455933	-1.84559258	-0.77772078	0.60102028	1.04559875	-0.02160049	3.17947978	-2.90617367	-6.95037445	-46.96930386	-4.48155280	-0.00000082	0.00000000	23.27657638	1.38076320	0.20135362	-20.21201914	-5.52743382	0.00000249	0.00000000	-19.54310531	-0.47001089	-4.72635202
40.01000000	4.84455933	-1.84559258	-0.77772078	0.60102028	1.04559875	-0.02160049	3.48250516	-2.90617367	-6.95037445	-47.58242773	-5.03515618	-0.00000082	0.00000000	23.12297874	1.38076320	0.20135362	-20.23026285	-5.41319194	0.00000249	0.00000000	-19.54310531	-0.47001089	-4.72635202
40.01200000	4.84455933	-1.84559258	-0.77772078	0.60102028	1.04559875	-0.02160049	3.79114051	-2.90617367	-6.95037445	-48.19389095	-5.58454521	-0.00000082	0.00000000	22.96847315	1.38076320	0.20135362	-20.24190176	-5.29822462	0.00000249	0.00000000	-19.54310531	-0.47001089	-4.72635202
40.01400000	4.84455933	-1.84559258	-0.77772078	0.60102028	1.04559875	-0.02160049	4.10497763	-2.90617367	-6.95037445	-48.80305535	-6.12936727	-0.00000082	0.00000000	22.81350385	1.38076320	0.20135362	-20.24720195	-5.18252401	0.00000249	0.00000000	-19.54310531	-0.47001089	-4.72635202
40.01600000	4.84455933	-1.84559258	-0.77772078	0.60102028	1.04559875	-0.02160049	4.42396938	-2.90617367	-6.95037445	-49.40908044	-6.66920473	-0.00000082	0.00000000	22.65801404	1.38076320	0.20135362	-20.24672738	-5.06610828	0.00000249	0.00000000	-19.54310531	-0.47001089	-4.72635202
40.01800000	4.84455933	-1.84559258	-0.77772078	0.60102028	1.04559875	-0.02160049	4.74784554	-2.90617367	-6.95037445	-50.01125845	-7.20357679	-0.00000082	0.00000000	22.50237259	1.38076320	0.20135362	-20.24084494	-4.94897175	0.00000249	0.00000000	-19.54310531	-0.47001089	-4.72635202
40.02000000	4.84455933	-1.84559258	-0.77772078	0.60102028	1.04559875	-0.02160049	5.07644628	-2.90617367	-6.95037445	-50.60884244	-7.73191435	-0.00000082	0.00000000	22.34679163	1.38076320	0.20135362	-20.23002444	-4.83112215	0.00000249	0.00000000	-19.54310531	-0.47001089	-4.72635202
40.02200000	4.84455933	-1.84559258	-0.77772078	0.60102028	1.04559875	-0.02160049	5.40946862	-2.90617367	-6.95037445	-51.20120175	-8.25353099	-0.00000082	0.00000000	22.19156121	1.38076320	0.20135362	-20.21470669	-4.71256863	0.00000249	0.00000000	-19.54310531	-0.47001089	-4.72635202
40.02400000	4.84455933	-1.84559258	-0.77772078	0.60102028	1.04559875	-0.02160049	5.74681874	-2.90617367	-6.95037445	-51.78763452	-8.76762203	-0.00000082	0.00000000	22.03685099	1.38076320	0.20135362	-20.19540331	-4.59333516	0.00000249	0.00000000	-19.54310531	-0.47001089	-4.72635202
40.02600000	4.84455933	-1.84559258	-0.77772078	0.60102028	1.04559875	-0.02160049	6.08815916	-2.90617367	-6.95037445	-52.36762495	-9.27325354	-0.00000082	0.00000000	21.88298729	1.38076320	0.20135362	-20.17254322	-4.47344067	0.00000249	0.00000000	-19.54310531	-0.47001089	-4.72635202
40.02800000	4.84455933	-1.84559258	-0.77772078	0.60102028	1.04559875	-0.02160049	6.43332352	-2.90617367	-6.95037445	-52.94062293	-9.76933611	-0.00000082	0.00000000	21.72991302	1.38076320	0.20135362	-20.14674886	-4.35294141	0.00000249	0.00000000	-19.54310531	-0.47001089	-4.72635202
40.03000000	4.84455933	-1.84559258	-0.77772078	0.60102028	1.04559875	-0.02160049	6.78182766	-2.90617367	-6.95037445	-53.50631463	-10.25465234	-0.00000082	0.00000000	21.57817743	1.38076320	0.20135362	-20.11831300	-4.23185908	0.00000249	0.00000000	-19.54310531	-0.47001089	-4.72635202
40.03200000	4.84455933	-1.84559258	-0.77772078	0.60102028	1.04559875	-0.02160049	7.13355043	-2.90617367	-6.95037445	-54.06424992	-10.72782362	-0.00000082	0.00000000	21.42792013	1.38076320	0.20135362	-20.08772444	-4.11025592	0.00000249	0.00000000	-19.54310531	-0.47001089	-4.72635202
40.03400000	4.84455933	-1.84559258	-0.77772078	0.60102028	1.04559875	-0.02160049	7.48813491	-2.90617367	-6.95037445	-54.61417031	-11.18731978	-0.00000082	0.00000000	21.27949405	1.38076320	0.20135362	-20.05533537	-3.98817883	0.00000249	0.00000000	-19.54310531	-0.47001089	-4.72635202
40.03600000	4.84455933	-1.84559258	-0.77772078	0.60102028	1.04559875	-0.02160049	7.84542811	-2.90617367	-6.95037445	-55.15575834	-11.63149529	-0.00000082	0.00000000	21.13288713	1.38076320	0.20135362	-20.02165546	-3.86573030	0.00000249	0.00000000	-19.54310531	-0.47001089	-4.72635202
40.03800000	4.84455933	-1.84559258	-0.77772078	0.60102028	1.04559875	-0.02160049	8.20507486	-2.90617367	-6.95037445	-55.68885278	-12.05859638	-0.00000082	0.00000000	20.98810751	1.38076320	0.20135362	-19.98714686	-3.74301649	0.00000249	0.00000000	-19.54310531	-0.47001089	-4.72635202
